<svg width="109" height="59" viewBox="0 0 109 59" fill="none" xmlns="http://www.w3.org/2000/svg">
<path d="M14.88 13.4H20.688L35.376 47H29.328L17.616 19.112L5.952 47H0.048L14.88 13.4ZM7.44 34.424H27.552V39.224H7.44V34.424ZM103.583 22.136C102.367 20.792 100.927 19.736 99.2633 18.968C97.5993 18.2 95.9193 17.816 94.2233 17.816C92.5593 17.816 90.9913 18.136 89.5193 18.776C88.0793 19.384 86.7993 20.248 85.6793 21.368C84.5913 22.488 83.7433 23.8 83.1353 25.304C82.5273 26.776 82.2233 28.376 82.2233 30.104C82.2233 31.8 82.5273 33.4 83.1353 34.904C83.7433 36.376 84.5913 37.672 85.6793 38.792C86.7993 39.912 88.0793 40.792 89.5193 41.432C90.9913 42.072 92.5593 42.392 94.2233 42.392C95.9193 42.392 97.5833 42.04 99.2153 41.336C100.847 40.6 102.303 39.608 103.583 38.36L106.943 41.864C105.823 42.984 104.543 43.96 103.103 44.792C101.695 45.624 100.207 46.264 98.6393 46.712C97.1033 47.16 95.5353 47.384 93.9353 47.384C91.4713 47.384 89.1833 46.952 87.0713 46.088C84.9593 45.192 83.1033 43.96 81.5033 42.392C79.9353 40.824 78.7033 39 77.8073 36.92C76.9113 34.808 76.4633 32.552 76.4633 30.152C76.4633 27.752 76.9113 25.528 77.8073 23.48C78.7033 21.4 79.9513 19.576 81.5513 18.008C83.1833 16.44 85.0553 15.224 87.1673 14.36C89.3113 13.496 91.6313 13.064 94.1273 13.064C95.7273 13.064 97.2953 13.272 98.8313 13.688C100.367 14.104 101.823 14.696 103.199 15.464C104.575 16.232 105.807 17.16 106.895 18.248L103.583 22.136Z" fill="black"/>
<path d="M52.7175 13.4H58.5255L73.2135 47H67.1655L55.4535 19.112L43.7895 47H37.8855L52.7175 13.4ZM45.2775 34.424H65.3895V39.224H45.2775V34.424Z" fill="#4BC461"/>
</svg>
